<svg width="190" height="64" viewBox="0 0 190 64" fill="none" xmlns="http://www.w3.org/2000/svg">
<g clip-path="url(#clip0_49_31)">
<path d="M0 4.95519C0 2.21851 2.21852 0 4.95519 0H185.045C187.781 0 190 2.21852 190 4.95519V58.3781C190 61.1148 187.781 63.3333 185.045 63.3333H4.9552C2.21852 63.3333 0 61.1148 0 58.3781V4.95519Z" fill="#4C4C4C"/>
<path d="M76.7844 39.9462H70.8616L69.4393 43.7985H66.9305L72.5405 29.5458H75.1469L80.7569 43.7985H78.2056L76.7844 39.9462ZM71.475 38.1685H76.1697L73.8554 31.9165H73.7906L71.475 38.1685ZM92.8724 38.6035C92.8724 41.8325 90.9882 43.9072 88.1448 43.9072C87.4245 43.9418 86.7081 43.7896 86.0778 43.468C85.4474 43.1465 84.9285 42.6686 84.5804 42.0892H84.5266V47.2361H82.2011V33.4072H84.452V35.1356H84.4948C84.8589 34.5589 85.3866 34.0835 86.0217 33.76C86.6569 33.4365 87.3758 33.277 88.102 33.2985C90.9771 33.2985 92.8724 35.3834 92.8724 38.6035ZM90.4823 38.6035C90.4823 36.4997 89.2971 35.1165 87.4886 35.1165C85.7118 35.1165 84.5168 36.5287 84.5168 38.6034C84.5168 40.6972 85.7118 42.0994 87.4886 42.0994C89.2971 42.0994 90.4823 40.7265 90.4823 38.6035ZM105.342 38.6035C105.342 41.8325 103.457 43.9072 100.613 43.9072C99.8931 43.9418 99.1768 43.7896 98.5464 43.468C97.916 43.1465 97.3971 42.6686 97.0491 42.0892H96.9952V47.2361H94.6699V33.4072H96.9207V35.1356H96.9635C97.3275 34.5589 97.8552 34.0835 98.4904 33.76C99.1256 33.4365 99.8445 33.277 100.571 33.2985C103.446 33.2985 105.342 35.3834 105.342 38.6035ZM102.951 38.6035C102.951 36.4997 101.766 35.1165 99.9573 35.1165C98.1805 35.1165 96.9855 36.5287 96.9855 38.6034C96.9855 40.6972 98.1805 42.0994 99.9573 42.0994C101.766 42.0994 102.951 40.7265 102.951 38.6035ZM113.581 39.8274C113.754 41.2408 115.251 42.1688 117.296 42.1688C119.256 42.1688 120.666 41.2408 120.666 39.9663C120.666 38.86 119.816 38.1976 117.802 37.7437L115.788 37.2987C112.935 36.6665 111.61 35.4426 111.61 33.4564C111.61 30.9973 113.947 29.3083 117.263 29.3083C120.548 29.3083 122.798 30.9973 122.874 33.4564H120.527C120.386 32.0341 119.104 31.1755 117.231 31.1755C115.358 31.1755 114.076 32.0442 114.076 33.3085C114.076 34.3162 114.895 34.9091 116.898 35.3629L118.61 35.7486C121.798 36.4401 123.121 37.6148 123.121 39.6995C123.121 42.366 120.807 44.0361 117.124 44.0361C113.678 44.0361 111.351 42.4051 111.201 39.8273L113.581 39.8274ZM128.142 30.9481V33.4072H130.296V35.0963H128.142V40.8249C128.142 41.7149 128.573 42.1296 129.52 42.1296C129.776 42.1255 130.031 42.109 130.285 42.0802V43.7594C129.86 43.8323 129.427 43.8653 128.994 43.8578C126.7 43.8578 125.806 43.0677 125.806 41.0524V35.0963H124.158V33.4072H125.806V30.9481H128.142ZM131.543 38.6035C131.543 35.3339 133.642 33.2794 136.916 33.2794C140.2 33.2794 142.29 35.3339 142.29 38.6035C142.29 41.8819 140.211 43.9274 136.916 43.9274C133.621 43.9274 131.543 41.8819 131.543 38.6035ZM139.92 38.6035C139.92 36.3607 138.8 35.0369 136.916 35.0369C135.031 35.0369 133.911 36.3707 133.911 38.6035C133.911 40.8552 135.031 42.1688 136.916 42.1688C138.8 42.1688 139.92 40.8552 139.92 38.6035ZM144.207 33.4072H146.425V35.1759H146.478C146.629 34.6235 146.981 34.1353 147.478 33.7934C147.974 33.4515 148.583 33.2768 149.203 33.2985C149.471 33.2976 149.739 33.3243 150 33.378V35.3732C149.662 35.2783 149.309 35.2348 148.955 35.2443C148.618 35.2317 148.281 35.2863 147.968 35.4044C147.656 35.5225 147.374 35.7012 147.144 35.9284C146.914 36.1555 146.74 36.4256 146.635 36.7202C146.529 37.0148 146.494 37.3269 146.532 37.635V43.7985H144.207V33.4072ZM160.721 40.7464C160.409 42.6329 158.406 43.9274 155.843 43.9274C152.548 43.9274 150.502 41.9021 150.502 38.6527C150.502 35.3934 152.559 33.2794 155.746 33.2794C158.88 33.2794 160.851 35.2544 160.851 38.405V39.1358H152.85V39.2647C152.813 39.6471 152.865 40.0324 153.003 40.3949C153.141 40.7574 153.361 41.0889 153.649 41.3673C153.938 41.6457 154.287 41.8646 154.675 42.0096C155.062 42.1545 155.479 42.2222 155.897 42.2081C156.447 42.2553 156.998 42.1386 157.47 41.8752C157.941 41.6118 158.307 41.216 158.513 40.7464H160.721ZM152.861 37.6451H158.524C158.545 37.3012 158.489 36.9571 158.358 36.6344C158.227 36.3116 158.024 36.0172 157.763 35.7695C157.502 35.5219 157.189 35.3264 156.841 35.1953C156.494 35.0642 156.121 35.0003 155.746 35.0077C155.367 35.0056 154.992 35.0724 154.641 35.2041C154.291 35.3358 153.972 35.5298 153.704 35.775C153.436 36.0202 153.223 36.3117 153.078 36.6327C152.934 36.9537 152.86 37.2978 152.861 37.6451ZM69.6923 16.9626C70.1798 16.9305 70.669 16.998 71.1247 17.1603C71.5803 17.3227 71.9909 17.5757 72.327 17.9013C72.6631 18.2268 72.9162 18.6167 73.0681 19.0428C73.22 19.469 73.2669 19.9207 73.2054 20.3655C73.2054 22.5533 71.9162 23.811 69.6923 23.811H66.9955V16.9624L69.6923 16.9626ZM68.1551 22.8424H69.5628C69.9112 22.8615 70.2598 22.8091 70.5833 22.689C70.9067 22.569 71.197 22.3842 71.4328 22.1483C71.6687 21.9124 71.8442 21.6312 71.9466 21.3252C72.049 21.0192 72.0758 20.6961 72.0249 20.3794C72.0721 20.0639 72.0427 19.7428 71.9387 19.4391C71.8347 19.1353 71.6587 18.8564 71.4234 18.6224C71.1881 18.3883 70.8993 18.2049 70.5776 18.0852C70.2559 17.9656 69.9094 17.9127 69.5628 17.9303H68.1551V22.8424ZM74.5153 21.2246C74.4799 20.8849 74.5223 20.5423 74.6397 20.2185C74.7571 19.8948 74.947 19.5971 75.1971 19.3446C75.4473 19.0921 75.7523 18.8904 76.0924 18.7524C76.4326 18.6143 76.8004 18.543 77.1724 18.543C77.5444 18.543 77.9122 18.6143 78.2524 18.7524C78.5926 18.8904 78.8975 19.0921 79.1477 19.3446C79.3979 19.5971 79.5877 19.8948 79.7052 20.2185C79.8226 20.5423 79.8649 20.8849 79.8295 21.2246C79.8657 21.5646 79.8239 21.9078 79.7069 22.2322C79.5898 22.5565 79.4 22.8548 79.1498 23.1079C78.8995 23.3609 78.5943 23.5631 78.2538 23.7015C77.9132 23.8399 77.5449 23.9114 77.1724 23.9114C76.7999 23.9114 76.4316 23.8399 76.091 23.7015C75.7505 23.5631 75.4453 23.3609 75.195 23.1079C74.9448 22.8548 74.755 22.5565 74.638 22.2322C74.5209 21.9078 74.4791 21.5646 74.5153 21.2246ZM78.6858 21.2246C78.6858 20.1043 78.1371 19.4491 77.1743 19.4491C76.2077 19.4491 75.664 20.1043 75.664 21.2246C75.664 22.3538 76.2078 23.0039 77.1743 23.0039C78.1371 23.0039 78.6858 22.3494 78.6858 21.2246ZM86.8937 23.8109H85.74L84.5756 20.0045H84.4876L83.328 23.8109H82.1855L80.6324 18.6426H81.7602L82.7696 22.5863H82.8527L84.0111 18.6426H85.0778L86.2362 22.5863H86.3242L87.3286 18.6426H88.4406L86.8937 23.8109ZM89.7468 18.6427H90.8173V19.4637H90.9003C91.0413 19.1688 91.2791 18.9216 91.5805 18.7565C91.8819 18.5915 92.2319 18.5168 92.5818 18.5429C92.856 18.524 93.1312 18.5619 93.3872 18.6538C93.6432 18.7458 93.8734 18.8893 94.0607 19.074C94.248 19.2586 94.3876 19.4795 94.4692 19.7203C94.5508 19.9611 94.5723 20.2157 94.532 20.4651V23.8108H93.42V20.7213C93.42 19.8908 93.0265 19.4777 92.2042 19.4777C92.018 19.4698 91.8322 19.4988 91.6595 19.5629C91.4868 19.627 91.3312 19.7246 91.2034 19.849C91.0756 19.9734 90.9786 20.1216 90.9192 20.2836C90.8597 20.4456 90.8391 20.6174 90.8588 20.7874V23.8109H89.7468V18.6427ZM96.3038 16.6251H97.4157V23.8109H96.3038V16.6251ZM98.9615 21.2246C98.9261 20.8849 98.9684 20.5422 99.0859 20.2184C99.2033 19.8946 99.3932 19.5969 99.6434 19.3444C99.8937 19.0918 100.199 18.8901 100.539 18.752C100.879 18.614 101.247 18.5426 101.619 18.5426C101.991 18.5426 102.359 18.614 102.699 18.752C103.039 18.8901 103.344 19.0918 103.595 19.3444C103.845 19.5969 104.035 19.8946 104.152 20.2184C104.27 20.5422 104.312 20.8849 104.276 21.2246C104.312 21.5646 104.271 21.9077 104.153 22.2319C104.036 22.5562 103.846 22.8543 103.596 23.1073C103.346 23.3602 103.041 23.5624 102.7 23.7007C102.36 23.839 101.991 23.9105 101.619 23.9105C101.247 23.9105 100.878 23.839 100.538 23.7007C100.197 23.5624 99.8921 23.3602 99.6418 23.1073C99.3916 22.8543 99.2018 22.5562 99.0846 22.2319C98.9674 21.9077 98.9255 21.5646 98.9615 21.2246ZM103.132 21.2246C103.132 20.1043 102.583 19.4491 101.62 19.4491C100.654 19.4491 100.11 20.1043 100.11 21.2246C100.11 22.3538 100.654 23.0039 101.62 23.0039C102.583 23.0039 103.132 22.3494 103.132 21.2246ZM105.447 22.3494C105.447 21.419 106.202 20.8827 107.543 20.8065L109.069 20.7258V20.2796C109.069 19.7338 108.675 19.4256 107.915 19.4256C107.295 19.4256 106.864 19.6346 106.741 20.0001H105.664C105.778 19.1123 106.688 18.543 107.967 18.543C109.379 18.543 110.176 19.188 110.176 20.2796V23.8109H109.105V23.0846H109.017C108.839 23.3451 108.588 23.5575 108.291 23.7001C107.994 23.8426 107.66 23.9103 107.325 23.8961C107.089 23.9186 106.85 23.8955 106.623 23.8281C106.397 23.7607 106.189 23.6506 106.012 23.5049C105.835 23.3592 105.693 23.1811 105.596 22.982C105.499 22.783 105.448 22.5675 105.447 22.3494ZM109.069 21.9077V21.4756L107.693 21.5563C106.917 21.6039 106.565 21.8461 106.565 22.3016C106.565 22.7668 107.005 23.0376 107.61 23.0376C107.787 23.054 107.966 23.0376 108.136 22.9893C108.306 22.941 108.464 22.8618 108.6 22.7563C108.737 22.6509 108.848 22.5215 108.929 22.3757C109.009 22.2299 109.057 22.0707 109.069 21.9077ZM111.637 21.2246C111.637 19.5915 112.553 18.557 113.976 18.557C114.328 18.5421 114.678 18.6195 114.984 18.78C115.29 18.9406 115.54 19.1777 115.704 19.4637H115.787V16.625H116.899V23.8108H115.834V22.9942H115.746C115.568 23.2782 115.31 23.5124 114.998 23.6714C114.686 23.8303 114.333 23.908 113.976 23.8959C112.543 23.8959 111.637 22.8615 111.637 21.2246ZM112.786 21.2246C112.786 22.3207 113.349 22.9804 114.291 22.9804C115.229 22.9804 115.808 22.3113 115.808 21.2289C115.808 20.1519 115.223 19.4732 114.291 19.4732C113.355 19.4732 112.786 20.1373 112.786 21.2246ZM121.5 21.2246C121.464 20.8849 121.507 20.5423 121.624 20.2185C121.741 19.8948 121.931 19.5971 122.181 19.3446C122.432 19.0921 122.737 18.8904 123.077 18.7524C123.417 18.6143 123.785 18.543 124.157 18.543C124.529 18.543 124.897 18.6143 125.237 18.7524C125.577 18.8904 125.882 19.0921 126.132 19.3446C126.382 19.5971 126.572 19.8948 126.689 20.2185C126.807 20.5423 126.849 20.8849 126.814 21.2246C126.85 21.5646 126.808 21.9078 126.691 22.2322C126.574 22.5565 126.384 22.8548 126.134 23.1079C125.884 23.3609 125.579 23.5631 125.238 23.7015C124.898 23.8399 124.529 23.9114 124.157 23.9114C123.784 23.9114 123.416 23.8399 123.075 23.7015C122.735 23.5631 122.43 23.3609 122.179 23.1079C121.929 22.8548 121.739 22.5565 121.622 22.2322C121.505 21.9078 121.463 21.5646 121.5 21.2246ZM125.67 21.2246C125.67 20.1043 125.121 19.4491 124.159 19.4491C123.192 19.4491 122.648 20.1043 122.648 21.2246C122.648 22.3538 123.192 23.0039 124.159 23.0039C125.121 23.0039 125.67 22.3494 125.67 21.2246ZM128.306 18.6427H129.376V19.4637H129.459C129.6 19.1688 129.838 18.9216 130.139 18.7565C130.441 18.5915 130.791 18.5168 131.141 18.5429C131.415 18.524 131.69 18.5619 131.946 18.6538C132.202 18.7458 132.432 18.8893 132.62 19.074C132.807 19.2586 132.947 19.4795 133.028 19.7203C133.11 19.9611 133.131 20.2157 133.091 20.4651V23.8108H131.979V20.7213C131.979 19.8908 131.586 19.4777 130.763 19.4777C130.577 19.4698 130.391 19.4988 130.219 19.5629C130.046 19.627 129.89 19.7246 129.762 19.849C129.635 19.9734 129.538 20.1216 129.478 20.2836C129.419 20.4456 129.398 20.6174 129.418 20.7874V23.8109H128.306L128.306 18.6427ZM139.374 17.356V18.6663H140.595V19.5253H139.374V22.1828C139.374 22.7242 139.617 22.9613 140.171 22.9613C140.313 22.9609 140.454 22.953 140.595 22.9377V23.7874C140.395 23.8201 140.193 23.8376 139.99 23.8395C138.754 23.8395 138.261 23.4404 138.261 22.4441V19.5253H137.367V18.6661H138.261V17.3561L139.374 17.356ZM142.114 16.6251H143.216V19.4732H143.304C143.452 19.1756 143.696 18.927 144.004 18.7613C144.311 18.5956 144.667 18.5209 145.022 18.5474C145.295 18.5337 145.567 18.5755 145.821 18.6697C146.074 18.7638 146.301 18.9081 146.486 19.0921C146.672 19.2762 146.81 19.4955 146.893 19.7344C146.975 19.9733 146.999 20.2259 146.963 20.4742V23.8109H145.849V20.7258C145.849 19.9002 145.43 19.4822 144.645 19.4822C144.453 19.4678 144.261 19.4919 144.081 19.5528C143.901 19.6137 143.738 19.7099 143.603 19.8347C143.468 19.9595 143.364 20.1099 143.299 20.2753C143.234 20.4408 143.209 20.6173 143.226 20.7925V23.8109H142.114V16.6251ZM153.446 22.4154C153.295 22.8877 152.968 23.2963 152.521 23.5697C152.075 23.843 151.538 23.9637 151.005 23.9106C150.634 23.9196 150.265 23.8544 149.924 23.7195C149.583 23.5846 149.278 23.3833 149.03 23.1295C148.782 22.8757 148.598 22.5755 148.49 22.2497C148.381 21.924 148.351 21.5805 148.402 21.2431C148.353 20.9046 148.383 20.5603 148.491 20.2336C148.599 19.9068 148.783 19.6052 149.029 19.3492C149.276 19.0932 149.579 18.8887 149.919 18.7495C150.259 18.6104 150.628 18.5399 151 18.5429C152.568 18.5429 153.513 19.5253 153.513 21.1483V21.5042H149.535V21.5613C149.517 21.751 149.543 21.9419 149.611 22.1218C149.679 22.3017 149.787 22.4666 149.928 22.606C150.069 22.7454 150.241 22.8562 150.431 22.9313C150.622 23.0063 150.828 23.044 151.035 23.0419C151.301 23.0712 151.571 23.0273 151.809 22.9157C152.048 22.8041 152.245 22.63 152.376 22.4154H153.446ZM149.535 20.7499H152.381C152.395 20.5764 152.369 20.4022 152.305 20.2384C152.241 20.0746 152.141 19.9248 152.01 19.7987C151.88 19.6727 151.722 19.573 151.547 19.5063C151.372 19.4395 151.183 19.407 150.994 19.411C150.801 19.4088 150.611 19.4419 150.432 19.5084C150.254 19.5749 150.092 19.6735 149.956 19.7983C149.82 19.923 149.713 20.0715 149.641 20.2349C149.568 20.3984 149.532 20.5735 149.535 20.7499Z" fill="white"/>
<path d="M45.7774 26.5939C45.0744 27.7551 44.6961 29.0642 44.6778 30.3993C44.6795 31.9012 45.1527 33.3693 46.0385 34.6206C46.9242 35.872 48.1832 36.8512 49.6585 37.4362C49.0784 39.2029 48.2041 40.8726 47.0678 42.3832C45.5419 44.5234 43.9419 46.6142 41.4024 46.6528C38.935 46.7062 38.1058 45.2913 35.2756 45.2913C32.4191 45.2913 31.5351 46.6142 29.1685 46.7062C26.7501 46.7901 24.9019 44.422 23.3206 42.302C20.1597 37.9723 17.6984 30.1006 20.9981 24.7444C21.7599 23.4611 22.8632 22.3846 24.2006 21.6199C25.538 20.8552 27.0639 20.4283 28.6296 20.3809C31.0503 20.3341 33.2982 21.9136 34.7863 21.9136C36.2464 21.9136 39.0239 20.0242 41.8889 20.3061C43.232 20.3455 44.5468 20.678 45.7289 21.2772C46.911 21.8763 47.9278 22.7256 48.6985 23.7577C47.4853 24.457 46.4804 25.4326 45.7774 26.5939Z" fill="white"/>
<path d="M41.9188 11.875C42.084 13.8974 41.4018 15.9004 40.0172 17.4588C39.3542 18.232 38.5128 18.8539 37.5562 19.278C36.5996 19.702 35.5528 19.917 34.4948 19.9068C34.4273 18.9343 34.5649 17.9589 34.8997 17.0363C35.2346 16.1136 35.7601 15.2619 36.4462 14.5299C37.8495 13.0313 39.8034 12.0833 41.9188 11.875Z" fill="white"/>
</g>
<defs>
<clipPath id="clip0_49_31">
<rect width="190" height="63.3333" rx="9.91039" fill="white"/>
</clipPath>
</defs>
</svg>
