<svg width="190" height="64" viewBox="0 0 190 64" fill="none" xmlns="http://www.w3.org/2000/svg">
<g clip-path="url(#clip0_49_36)">
<path d="M-6.10352e-05 4.95519C-6.10352e-05 2.21851 2.21845 0 4.95513 0H185.045C187.781 0 190 2.21852 190 4.95519V58.3781C190 61.1148 187.781 63.3333 185.045 63.3333H4.95514C2.21846 63.3333 -6.10352e-05 61.1148 -6.10352e-05 58.3781V4.95519Z" fill="#4C4C4C"/>
<path fill-rule="evenodd" clip-rule="evenodd" d="M73.6636 19.8174C73.5926 20.3709 73.3972 20.7943 73.0837 21.1037C72.5451 21.6308 71.8842 21.891 71.0719 21.8925C70.3096 21.8915 69.6628 21.6337 69.1052 21.107C68.5529 20.5822 68.2782 19.9122 68.2768 19.0646C68.2782 18.2171 68.5529 17.5471 69.1052 17.0223C69.6628 16.4956 70.3095 16.2378 71.0719 16.2368C71.9194 16.2388 72.5594 16.5139 73.0348 17.0695L73.123 17.1724L73.8804 16.4273L73.9616 16.3475L73.8876 16.2613C73.5797 15.9007 73.1694 15.6144 72.6651 15.4019C72.1598 15.1887 71.6266 15.0819 71.0719 15.0819C69.9576 15.081 68.996 15.4658 68.216 16.2272C67.4332 16.9872 67.0386 17.9425 67.0396 19.0646C67.0386 20.1863 67.4332 21.1421 68.2165 21.9026C68.996 22.6635 69.9576 23.0479 71.0719 23.0469C72.2323 23.0479 73.1949 22.6692 73.9254 21.9155C74.5733 21.2784 74.8947 20.4181 74.8939 19.3644H74.8938C74.8938 19.1772 74.8761 18.9848 74.8394 18.7848L74.8209 18.6837H70.9465V19.8174H73.6636ZM80.6703 16.2787V15.2479H76.0294V22.8824H80.6703V21.7285H77.2455V19.6322H80.334V18.4981H77.2455V16.4018H80.6703V16.2787ZM84.7455 22.7592V16.4018H86.8459V15.2479H81.4274V16.4018H83.5278V22.8823H84.7455V22.7592V22.7592ZM90.46 22.8824H91.5514V15.2479H90.3347V22.8824H90.46ZM95.8388 22.7586V16.4013H97.9392V15.2474H92.5208V16.4012H94.6211V22.8817H95.8388V22.7586V22.7586ZM102.885 21.0988H102.885C102.353 20.5673 102.087 19.8987 102.086 19.0646C102.087 18.2307 102.353 17.562 102.885 17.0304C103.421 16.499 104.062 16.2383 104.839 16.2369C105.615 16.2383 106.257 16.499 106.792 17.0304C107.325 17.562 107.591 18.2307 107.592 19.0646C107.591 19.8986 107.325 20.5673 106.792 21.0988C106.257 21.6303 105.615 21.891 104.839 21.8924C104.062 21.891 103.421 21.6303 102.885 21.0988ZM107.686 21.8895C108.446 21.1228 108.831 20.1719 108.83 19.0646C108.831 17.9637 108.445 17.0147 107.681 16.2446C106.918 15.4715 105.961 15.0806 104.839 15.0819C103.711 15.0806 102.751 15.4697 101.992 16.2398V16.2392C101.231 17.0064 100.848 17.9574 100.849 19.0646C100.848 20.1719 101.231 21.1228 101.992 21.89L101.996 21.8935L101.992 21.8895C102.751 22.6596 103.711 23.0479 104.839 23.0469C105.966 23.0479 106.926 22.6596 107.686 21.8895ZM111.12 17.1159L111.15 18.1556V22.8824H110.059H109.934V15.2479H111.305L114.795 20.7367L114.765 19.6962V15.2479H115.983V22.8824H114.779L111.12 17.1159ZM151.705 43.6924H149.367L149.367 28.2989H151.705V43.6924ZM167.751 40.5178L170.432 33.844L173.033 33.8439L166.603 48.3605H164.163L166.542 43.1719L162.369 33.8439H164.889L167.671 40.5178H167.751ZM155.334 40.6366C155.334 41.5678 156.402 41.944 157.169 41.944C158.519 41.944 159.769 40.9339 159.95 39.5082C159.325 39.2108 158.842 38.993 157.813 38.993C156.665 38.993 155.334 39.4485 155.334 40.6366ZM153.278 35.8641C154.004 34.2402 155.758 33.5072 157.451 33.5072C160.132 33.5072 162.208 35.0325 162.208 37.765V43.6669H159.95V42.4789H159.87C159.325 43.2907 158.459 43.9838 156.886 43.9838C154.83 43.9838 152.995 42.6568 152.995 40.5971C152.995 38.3393 155.274 37.1315 157.511 37.1315C158.62 37.1315 159.527 37.4879 159.95 37.7256V37.5674C159.93 36.2999 158.701 35.5866 157.491 35.5866C156.624 35.5866 155.798 35.8641 155.354 36.7155L153.278 35.8641ZM139.67 35.7178H142.997C144.745 35.7178 145.738 34.2724 145.738 33.0795C145.738 31.8636 144.745 30.4413 142.997 30.4413H139.67V35.7178ZM137.333 28.2989H142.937C145.529 28.2989 148.077 30.1426 148.077 33.0795C148.077 36.0166 145.529 37.8603 142.937 37.8603H139.67V43.6924H137.333V28.2989ZM109.409 38.7924C109.409 40.6178 110.762 41.9468 112.378 41.9468C113.973 41.9468 115.225 40.6178 115.225 38.7924C115.225 36.9478 113.973 35.5986 112.378 35.5986C110.762 35.5986 109.409 36.9479 109.409 38.7924ZM114.982 34.7059H115.063V33.8531H117.284V43.2561C117.284 47.1243 114.962 48.7117 112.216 48.7117C109.631 48.7117 108.076 47.0055 107.491 45.6169L109.53 44.7837C109.894 45.6366 110.782 46.6486 112.216 46.6486C113.973 46.6486 115.063 45.5775 115.063 43.5736V42.8198H114.982C114.458 43.4542 113.447 44.0099 112.175 44.0099C109.51 44.0099 107.067 41.7285 107.067 38.7924C107.067 35.8367 109.51 33.5356 112.175 33.5356C113.447 33.5356 114.458 34.0911 114.982 34.7059ZM121.242 43.6924H118.9V28.2983H121.242V43.6924ZM127.482 35.5591C126.29 35.5591 124.634 36.5904 124.695 38.614L129.46 36.6703C129.198 36.0151 128.411 35.5591 127.482 35.5591ZM127.401 33.5356C130.167 33.5356 131.521 35.6976 131.964 36.8684L132.206 37.4634L125.078 40.3599C125.624 41.411 126.472 41.9468 127.663 41.9468C128.855 41.9468 129.683 41.3715 130.289 40.4985L132.106 41.6889C131.521 42.5418 130.107 44.0099 127.663 44.0099C124.634 44.0099 122.373 41.7088 122.373 38.7727C122.373 35.6582 124.655 33.5356 127.401 33.5356ZM75.1753 37.3643V35.1426H82.7877C82.8689 35.5394 82.9092 36.0151 82.9092 36.5313C82.9092 38.1975 82.4445 40.2604 80.9502 41.7285C79.4965 43.2167 77.639 44.0099 75.1753 44.0099C70.6116 44.0099 66.775 40.3599 66.775 35.8765C66.775 31.3932 70.6116 27.743 75.1753 27.743C77.6992 27.743 79.4966 28.7149 80.8493 29.9848L79.2541 31.5519C78.2847 30.6592 76.9726 29.9647 75.1753 29.9647C71.8434 29.9647 69.2387 32.6034 69.2387 35.8765C69.2387 39.1498 71.8434 41.7881 75.1753 41.7881C77.3359 41.7881 78.5677 40.9353 79.355 40.1613C80.0012 39.5265 80.4253 38.614 80.5868 37.3643H75.1753ZM86.0524 38.7727C86.0524 40.6375 87.4458 41.9468 89.0616 41.9468C90.6767 41.9468 92.0701 40.6375 92.0701 38.7727C92.0701 36.8881 90.6767 35.5986 89.0616 35.5986C87.4458 35.5986 86.0524 36.8881 86.0524 38.7727ZM83.7101 38.7727C83.7101 35.7375 86.1131 33.5356 89.0616 33.5356C92.0094 33.5356 94.4124 35.7375 94.4124 38.7727C94.4124 41.7881 92.0094 44.0099 89.0616 44.0099C86.1131 44.0099 83.7101 41.7881 83.7101 38.7727ZM97.726 38.7727C97.726 40.6375 99.1196 41.9468 100.735 41.9468C102.35 41.9468 103.743 40.6375 103.743 38.7727C103.743 36.8881 102.35 35.5986 100.735 35.5986C99.1196 35.5986 97.726 36.8881 97.726 38.7727ZM95.3838 38.7727C95.3838 35.7375 97.7863 33.5356 100.735 33.5356C103.683 33.5356 106.086 35.7375 106.086 38.7727C106.086 41.7881 103.683 44.0099 100.735 44.0099C97.7863 44.0099 95.3838 41.7881 95.3838 38.7727Z" fill="white"/>
<path d="M20.1272 14.8522C19.6902 15.2396 19.4293 15.8858 19.4293 16.7435V16.5496V44.8536V44.6672C19.4293 45.4593 19.653 46.0711 20.032 46.465L20.1287 46.556V46.5564C20.4355 46.8283 20.8288 46.9727 21.2796 46.9723C21.7201 46.9723 22.2157 46.8343 22.7387 46.543L41.6433 35.9906L48.1369 32.3654C48.9616 31.9052 49.4246 31.3114 49.502 30.7066V30.7041C49.4246 30.0979 48.9616 29.5046 48.1369 29.0442L41.6428 25.4196L22.7387 14.8672C22.2146 14.5753 21.7187 14.4369 21.277 14.4369C20.8268 14.4369 20.434 14.5808 20.1273 14.8522H20.1272Z" fill="#00C1FF"/>
<path d="M20.1288 46.5555L20.032 46.4645C19.653 46.0706 19.4293 45.4588 19.4293 44.6667V44.8531V16.5561V16.743C19.4293 15.8853 19.6902 15.2391 20.1272 14.8517L36.2637 30.7041L20.1288 46.5555Z" fill="url(#paint0_linear_49_36)"/>
<path d="M41.6435 35.9904L36.264 30.7046L41.6431 25.4196L48.1372 29.0441C48.9619 29.5045 49.4249 30.0978 49.5022 30.7041V30.7065C49.4249 31.3113 48.9619 31.9051 48.1372 32.3653L41.6436 35.9904" fill="url(#paint1_linear_49_36)"/>
<path d="M21.2799 46.9724C20.8292 46.9728 20.4359 46.8283 20.1292 46.5564V46.556L36.2641 30.7046L41.6437 35.9905L22.739 46.543C22.216 46.8344 21.7204 46.9724 21.2799 46.9724Z" fill="url(#paint2_linear_49_36)"/>
<path d="M36.2638 30.7041L20.1273 14.8518C20.434 14.5803 20.8268 14.4364 21.277 14.4364C21.7186 14.4364 22.2146 14.5748 22.7387 14.8667L41.6428 25.4191L36.2637 30.7041" fill="url(#paint3_linear_49_36)"/>
<path d="M21.2794 47.1594C20.8287 47.1594 20.4348 47.0149 20.1281 46.743L20.1276 46.7435C20.1263 46.7423 20.1249 46.7411 20.1235 46.74L20.0396 46.6595C20.037 46.657 20.0345 46.6541 20.0314 46.6511L20.1281 46.5561C20.4349 46.828 20.8282 46.9724 21.279 46.9719C21.7194 46.9719 22.215 46.834 22.738 46.5426L41.6426 35.9902L41.7637 36.1092L41.6411 36.1777L22.7379 46.7295C22.2613 46.995 21.8079 47.1334 21.3984 47.1564C21.3588 47.1583 21.3191 47.1593 21.2794 47.1593" fill="url(#paint4_linear_49_36)"/>
<path d="M20.032 46.6508C19.653 46.2569 19.4293 45.6457 19.4293 44.853V44.6666C19.4293 45.4587 19.653 46.0705 20.032 46.4644L20.1288 46.5554L20.032 46.6508Z" fill="url(#paint5_linear_49_36)"/>
<path d="M41.7659 36.1097L41.6448 35.9906L48.1384 32.3656C48.9631 31.9054 49.4261 31.3115 49.5035 30.7067C49.5035 30.9286 49.4531 31.1506 49.3529 31.3665C49.1509 31.8018 48.746 32.2132 48.1385 32.5525L41.7659 36.1097" fill="url(#paint6_linear_49_36)"/>
<path d="M49.5021 30.7041C49.4247 30.0979 48.9618 29.5046 48.1371 29.0442L41.6429 25.4196L41.764 25.3006H41.7645L48.1371 28.8578C49.0463 29.3656 49.5016 30.0348 49.5021 30.7041Z" fill="url(#paint7_linear_49_36)"/>
<path d="M19.4293 16.7437V16.5482C19.4293 16.4777 19.4312 16.4087 19.4349 16.3418V16.3388C19.4349 16.3378 19.4349 16.3369 19.4352 16.3358V16.3283C19.4745 15.646 19.6902 15.1138 20.032 14.7584L20.1272 14.8523C19.6902 15.2398 19.4293 15.886 19.4293 16.7437Z" fill="url(#paint8_linear_49_36)"/>
<path d="M41.6421 25.4197L22.738 14.8672C22.2139 14.5754 21.718 14.437 21.2764 14.437C20.8261 14.437 20.4333 14.5809 20.1266 14.8523L20.0314 14.7583C20.0611 14.7274 20.092 14.6976 20.124 14.6689C20.125 14.6679 20.1266 14.6669 20.1276 14.6659C20.4319 14.3965 20.8205 14.2526 21.2667 14.25H21.2764C21.718 14.25 22.2139 14.3885 22.738 14.6804L41.7638 25.3003L41.7632 25.3007L41.6421 25.4197Z" fill="url(#paint9_linear_49_36)"/>
</g>
<defs>
<linearGradient id="paint0_linear_49_36" x1="29.7415" y1="16.257" x2="16.1049" y2="30.1824" gradientUnits="userSpaceOnUse">
<stop stop-color="#00A0FF"/>
<stop offset="0.00657" stop-color="#00A1FF"/>
<stop offset="0.2601" stop-color="#00BEFF"/>
<stop offset="0.5122" stop-color="#00D2FF"/>
<stop offset="0.7604" stop-color="#00DFFF"/>
<stop offset="1" stop-color="#00E3FF"/>
</linearGradient>
<linearGradient id="paint1_linear_49_36" x1="50.507" y1="30.6132" x2="18.9928" y2="30.6132" gradientUnits="userSpaceOnUse">
<stop stop-color="#FFE000"/>
<stop offset="0.4087" stop-color="#FFBD00"/>
<stop offset="0.7754" stop-color="#FFA500"/>
<stop offset="1" stop-color="#FF9C00"/>
</linearGradient>
<linearGradient id="paint2_linear_49_36" x1="38.7876" y1="35.7303" x2="15.6762" y2="59.1589" gradientUnits="userSpaceOnUse">
<stop stop-color="#FF3A44"/>
<stop offset="1" stop-color="#C31162"/>
</linearGradient>
<linearGradient id="paint3_linear_49_36" x1="15.9684" y1="12.5016" x2="26.2683" y2="22.9589" gradientUnits="userSpaceOnUse">
<stop stop-color="#32A071"/>
<stop offset="0.0685" stop-color="#2DA771"/>
<stop offset="0.4762" stop-color="#15CF74"/>
<stop offset="0.8009" stop-color="#06E775"/>
<stop offset="1" stop-color="#00F076"/>
</linearGradient>
<linearGradient id="paint4_linear_49_36" x1="38.7748" y1="39.3965" x2="20.2687" y2="58.2948" gradientUnits="userSpaceOnUse">
<stop stop-color="#CC2E36"/>
<stop offset="1" stop-color="#9C0E4E"/>
</linearGradient>
<linearGradient id="paint5_linear_49_36" x1="21.5789" y1="16.2569" x2="9.56531" y2="28.5253" gradientUnits="userSpaceOnUse">
<stop stop-color="#008DE0"/>
<stop offset="0.00657" stop-color="#008DE0"/>
<stop offset="0.2601" stop-color="#00A7E0"/>
<stop offset="0.5122" stop-color="#00B8E0"/>
<stop offset="0.7604" stop-color="#00C4E0"/>
<stop offset="1" stop-color="#00C7E0"/>
</linearGradient>
<linearGradient id="paint6_linear_49_36" x1="50.5083" y1="30.7055" x2="18.994" y2="30.7055" gradientUnits="userSpaceOnUse">
<stop stop-color="#E0C500"/>
<stop offset="0.4087" stop-color="#E0A600"/>
<stop offset="0.7754" stop-color="#E09100"/>
<stop offset="1" stop-color="#E08900"/>
</linearGradient>
<linearGradient id="paint7_linear_49_36" x1="50.507" y1="30.7054" x2="18.9927" y2="30.7054" gradientUnits="userSpaceOnUse">
<stop stop-color="#FFE840"/>
<stop offset="0.4087" stop-color="#FFCE40"/>
<stop offset="0.7754" stop-color="#FFBC40"/>
<stop offset="1" stop-color="#FFB540"/>
</linearGradient>
<linearGradient id="paint8_linear_49_36" x1="21.5656" y1="16.2795" x2="9.98436" y2="27.5936" gradientUnits="userSpaceOnUse">
<stop stop-color="#40B8FF"/>
<stop offset="0.00657" stop-color="#40B9FF"/>
<stop offset="0.2601" stop-color="#40CEFF"/>
<stop offset="0.5122" stop-color="#40DDFF"/>
<stop offset="0.7604" stop-color="#40E7FF"/>
<stop offset="1" stop-color="#40EAFF"/>
</linearGradient>
<linearGradient id="paint9_linear_49_36" x1="15.9442" y1="15.8546" x2="24.208" y2="24.2936" gradientUnits="userSpaceOnUse">
<stop stop-color="#65B895"/>
<stop offset="0.0685" stop-color="#62BD95"/>
<stop offset="0.4762" stop-color="#50DB97"/>
<stop offset="0.8009" stop-color="#44ED98"/>
<stop offset="1" stop-color="#40F498"/>
</linearGradient>
<clipPath id="clip0_49_36">
<rect width="190" height="63.3333" rx="9.91039" fill="white"/>
</clipPath>
</defs>
</svg>
